<?xml version="1.0" encoding="UTF-8" standalone="no"?>
<!-- Generator: Adobe Illustrator 16.0.3, SVG Export Plug-In . SVG Version: 6.00 Build 0)  -->

<svg
   xmlns:dc="http://purl.org/dc/elements/1.1/"
   xmlns:cc="http://creativecommons.org/ns#"
   xmlns:rdf="http://www.w3.org/1999/02/22-rdf-syntax-ns#"
   xmlns:svg="http://www.w3.org/2000/svg"
   xmlns="http://www.w3.org/2000/svg"
   xmlns:sodipodi="http://sodipodi.sourceforge.net/DTD/sodipodi-0.dtd"
   xmlns:inkscape="http://www.inkscape.org/namespaces/inkscape"
   version="1.1"
   id="Layer_1"
   x="0px"
   y="0px"
   width="879.83704"
   height="403.40601"
   viewBox="0 0 879.83705 403.40601"
   enable-background="new 0 0 850 384"
   xml:space="preserve"
   inkscape:version="0.91 r13725"
   sodipodi:docname="rmnj-shadow.svg"
   inkscape:export-filename="C:\Users\HSWMLH\Downloads\www.rmnj.co.uk\_img\rmnj-white.png"
   inkscape:export-xdpi="90"
   inkscape:export-ydpi="90"><metadata
     id="metadata35"><rdf:RDF><cc:Work
         rdf:about=""><dc:format>image/svg+xml</dc:format><dc:type
           rdf:resource="http://purl.org/dc/dcmitype/StillImage" /><dc:title></dc:title></cc:Work></rdf:RDF></metadata><defs
     id="defs33"><filter
       style="color-interpolation-filters:sRGB;"
       inkscape:label="Drop Shadow"
       id="filter4424"><feFlood
         flood-opacity="0.74902"
         flood-color="rgb(0,0,0)"
         result="flood"
         id="feFlood4426" /><feComposite
         in="flood"
         in2="SourceGraphic"
         operator="in"
         result="composite1"
         id="feComposite4428" /><feGaussianBlur
         in="composite1"
         stdDeviation="5"
         result="blur"
         id="feGaussianBlur4430" /><feOffset
         dx="0"
         dy="0"
         result="offset"
         id="feOffset4432" /><feComposite
         in="SourceGraphic"
         in2="offset"
         operator="over"
         result="composite2"
         id="feComposite4434" /></filter><filter
       style="color-interpolation-filters:sRGB;"
       inkscape:label="Drop Shadow"
       id="filter3526"><feFlood
         flood-opacity="0.74902"
         flood-color="rgb(0,0,0)"
         result="flood"
         id="feFlood3528" /><feComposite
         in="flood"
         in2="SourceGraphic"
         operator="in"
         result="composite1"
         id="feComposite3530" /><feGaussianBlur
         in="composite1"
         stdDeviation="7.5"
         result="blur"
         id="feGaussianBlur3532" /><feOffset
         dx="0"
         dy="0"
         result="offset"
         id="feOffset3534" /><feComposite
         in="SourceGraphic"
         in2="offset"
         operator="over"
         result="composite2"
         id="feComposite3536" /></filter></defs><sodipodi:namedview
     pagecolor="#ffffff"
     bordercolor="#666666"
     borderopacity="1"
     objecttolerance="10"
     gridtolerance="10"
     guidetolerance="10"
     inkscape:pageopacity="0"
     inkscape:pageshadow="2"
     inkscape:window-width="1280"
     inkscape:window-height="1002"
     id="namedview31"
     showgrid="false"
     inkscape:zoom="0.16941177"
     inkscape:cx="1654.7627"
     inkscape:cy="-1018.1385"
     inkscape:window-x="1272"
     inkscape:window-y="-8"
     inkscape:window-maximized="1"
     inkscape:current-layer="layer2"
     fit-margin-top="20"
     fit-margin-right="20"
     fit-margin-bottom="20"
     fit-margin-left="20" /><g
     inkscape:groupmode="layer"
     id="layer3"
     inkscape:label="Layer 3"
     style="display:none"><rect
       style="fill:#b3b3b3"
       id="rect3365"
       width="1528.8195"
       height="932.63892"
       x="-376.30206"
       y="-210.48288" /></g><g
     style="display:none"
     inkscape:label="Shadow"
     id="g3385"
     inkscape:groupmode="layer"><path
       style="opacity:0.75;fill:#000000;filter:url(#filter4424)"
       d="m 408.98242,20 c -29.436,0.001 -56.79275,13.752375 -75.34375,36.359375 -18.531,-22.21 -45.67815,-35.726563 -74.78515,-35.726563 -54.042,0 -97.99219,43.952657 -97.99219,97.972658 l -0.13867,149.36523 46.66406,0 -0.0215,-149.54492 c 0,-28.113999 23.10247,-50.978514 51.48047,-50.978514 28.372,0 51.45899,22.864515 51.45899,50.978514 l -0.35157,149.54492 40.14649,0 1.07422,-0.64062 6.3164,0 0,-149.53711 c 0,-28.121001 23.07999,-50.992189 51.45899,-50.992189 28.379,0 51.47461,22.871188 51.47461,50.992189 l -0.35156,149.53711 46.45312,0 0.46875,-149.34961 C 506.99414,63.948469 463.01842,20 408.98242,20 Z m 242.23438,0.830078 c -54.035,0.001 -98.00391,43.950656 -98.00391,97.972652 l -0.125,149.36524 46.66992,0 -0.0137,-149.53711 c 0,-28.121001 23.07298,-50.982422 51.45898,-50.982422 28.37901,0 51.47461,22.861421 51.47461,50.982422 l -0.3457,149.53711 46.43945,0 0.49024,-149.34961 c 0,-54.039001 -43.99492,-97.988282 -98.04492,-97.988282 z M 89.154297,22.498047 c -40.929,0 -65.373047,25.692031 -65.373047,68.707031 l 0,175.818362 46.669922,0 0,-174.392581 c 0,-20.703 6.25975,-27.697265 24.84375,-27.697265 l 38.027348,0 0,-42.435547 -6.33008,0 -37.837893,0 z m 724.019533,1.671875 0,277.953128 c 0,20.689 -6.26594,27.68164 -24.83594,27.68164 l -32.12891,0 0,42.40039 38.25391,0 c 40.929,0 65.375,-25.66897 65.375,-68.66797 l 0,-279.367188 -6.33203,0 -40.33203,0 z M 179.4375,299.48438 l 0,9.45507 9.45117,0 0,-9.45507 -9.45117,0 z m 86.7207,0 0,9.45507 9.45118,0 0,-9.45507 -9.45118,0 z m -121.15234,0.11718 0,67.81446 c 0,8.752 4.54884,15.28906 14.58984,15.28906 l 6.06641,-0.002 0,-7.23437 -4.54883,0 c -5.835,0 -7.70898,-2.8003 -7.70898,-8.4043 l 0,-67.46289 -8.39844,0 z m 152.55078,8.05274 0,17.97461 -7.23828,0 0,6.42187 7.23828,0 0,35.25 c 0,8.52 4.90113,15.4043 14.70313,15.4043 l 5.95507,-0.002 0,-7.23437 -4.43945,0 c -5.364,0 -7.82031,-3.1483 -7.82031,-8.4043 l 0,-35.01367 12.25781,0 0,-6.42187 -12.25977,0 0,-17.97461 -8.39648,0 z M 43.689453,324.57812 c -12.252,0 -21.126953,6.30265 -21.126953,16.80665 0,9.457 5.954156,14.4781 17.160156,15.41211 l 9.457032,0.8125 c 6.65,0.587 9.570312,3.38524 9.570312,8.40624 0,6.767 -5.834969,10.15235 -15.292969,10.15235 -7.119,0 -13.303515,-1.86539 -17.853515,-6.65039 L 20,375.12109 c 6.298,6.066 13.887172,8.28516 23.576172,8.28516 13.888,0 23.347656,-6.41981 23.347656,-17.50781 0,-10.739 -6.889687,-14.59139 -16.929687,-15.52539 l -9.21875,-0.81641 c -7.239,-0.583 -10.041016,-3.5003 -10.041016,-8.4043 0,-5.834 4.437797,-9.45312 12.841797,-9.45312 5.954,0 11.206969,1.40073 15.292969,4.55273 l 5.484375,-5.48633 c -5.14,-4.20299 -12.492063,-6.1875 -20.664063,-6.1875 z m 60.115237,0 c -7.007003,0 -12.490846,2.56911 -16.464846,6.53711 -5.834,5.954 -7,14.00791 -7,22.87891 0,8.868 1.166,16.924 7,22.875 3.974,3.97 9.457843,6.53711 16.464846,6.53711 7,0 12.48417,-2.56711 16.45117,-6.53711 5.835,-5.952 7.00781,-14.007 7.00781,-22.875 0,-8.871 -1.17281,-16.92491 -7.00781,-22.87891 -3.967,-3.968 -9.45117,-6.5371 -16.45117,-6.53711 z m 127.91992,0 c -14.478,0 -25.44531,9.80702 -25.44531,29.41602 0,19.607 10.96731,29.41211 25.44531,29.41211 7.942,0 12.9552,-2.09953 18.9082,-8.51953 l -5.72265,-5.48828 c -4.319,4.785 -7.70155,6.53711 -13.18555,6.53711 -5.603,0 -10.27169,-2.21611 -13.30469,-6.53711 -2.682,-3.735 -3.73633,-8.1683 -3.73633,-15.4043 0,-7.238 1.05333,-11.67711 3.73633,-15.41211 3.034,-4.317 7.70169,-6.53125 13.30469,-6.53125 5.484,0 8.86755,1.63192 13.18555,6.41992 l 5.72265,-5.37109 c -5.953,-6.418 -10.9672,-8.52149 -18.9082,-8.52149 z m 122.66211,0 c -7,0 -12.49003,2.56911 -16.45703,6.53711 -5.834,5.954 -7,14.00791 -7,22.87891 0,8.868 1.166,16.924 7,22.875 3.967,3.97 9.45703,6.53711 16.45703,6.53711 7.007,0 12.49194,-2.56711 16.45898,-6.53711 5.835,-5.952 7.00586,-14.007 7.00586,-22.875 0,-8.871 -1.17086,-16.92491 -7.00586,-22.87891 -3.96704,-3.968 -9.45198,-6.5371 -16.45898,-6.53711 z m 65.94336,0 c -6.648,0 -12.95347,2.91813 -16.10547,7.70313 l 0,-7.00391 -8.4043,0 0,57.42774 8.4043,0 0,-35.24805 c 0,-8.756 5.37139,-15.40625 13.77539,-15.40625 4.438,0 6.76988,1.04917 9.92188,4.20117 l 6.18554,-6.30273 c -4.087,-4.09 -8.28634,-5.3711 -13.77734,-5.3711 z m 41.67383,0 c -12.26,0 -21.12696,6.30265 -21.12696,16.80665 0,9.457 5.95221,14.4781 17.15821,15.41211 l 9.45117,0.8125 c 6.655,0.587 9.57617,3.38524 9.57617,8.40624 0,6.767 -5.84083,10.15235 -15.29883,10.15235 -7.112,0 -13.29847,-1.86539 -17.85547,-6.65039 l -5.5957,5.60351 c 6.298,6.066 13.88231,8.28516 23.57031,8.28516 13.889,0 23.34471,-6.41981 23.34571,-17.50781 0,-10.739 -6.88774,-14.59139 -16.92774,-15.52539 l -9.21875,-0.81641 c -7.239,-0.583 -10.0332,-3.5003 -10.0332,-8.4043 0,-5.834 4.43698,-9.45312 12.83398,-9.45312 5.954,0 11.20697,1.40073 15.29297,4.55273 l 5.49024,-5.48633 c -5.145,-4.20299 -12.49711,-6.1875 -20.66211,-6.1875 z m -282.10157,0.69922 0,57.42774 8.4043,0 0,-57.42774 -8.4043,0 z m 86.71875,0 0,57.42774 8.4043,0 0,-57.42774 -8.4043,0 z m -162.8164,6.77344 c 4.08,0 7.8209,1.51617 10.5039,4.20117 4.199,4.202 4.55078,11.32219 4.55079,17.74219 0,6.418 -0.35179,13.53723 -4.55079,17.74024 -2.683,2.68599 -6.4239,4.20117 -10.5039,4.20117 -4.093003,0 -7.709581,-1.51617 -10.392581,-4.20117 -4.205,-4.203 -4.667968,-11.32224 -4.667968,-17.74024 0,-6.42 0.462968,-13.54019 4.667968,-17.74219 2.683,-2.686 6.299579,-4.20117 10.392581,-4.20117 z m 250.58203,0 c 4.086,0 7.82091,1.51617 10.5039,4.20117 4.20504,4.202 4.55079,11.32219 4.55079,17.74219 0,6.418 -0.34574,13.53723 -4.55079,17.74024 -2.68299,2.68599 -6.4179,4.20117 -10.5039,4.20117 -4.086,0 -7.70258,-1.51617 -10.39258,-4.20117 -4.198,-4.203 -4.66211,-11.32224 -4.66211,-17.74024 0,-6.42 0.46411,-13.54019 4.66211,-17.74219 2.689,-2.686 6.30558,-4.20117 10.39258,-4.20117 z"
       id="path3387"
       inkscape:connector-curvature="0" /></g><g
     style="display:none"
     inkscape:label="Logo copy"
     id="g3357"
     inkscape:groupmode="layer"><path
       inkscape:connector-curvature="0"
       style="fill:#ffffff"
       id="path3359"
       d="m 853.50504,24.169 -40.332,0 0,277.955 c 0,20.689 -6.266,27.68 -24.836,27.68 l -32.128,0 0,42.402 38.254,0 c 40.929,0 65.374,-25.67 65.374,-68.669 l 0,-279.368" /><path
       inkscape:connector-curvature="0"
       style="fill:#ffffff"
       id="path3361"
       d="m 126.992,22.498 -37.837,0 c -40.929,0 -65.374,25.693 -65.374,68.708 l 0,175.817 46.671,0 0,-174.393 c 0,-20.703 6.258,-27.697 24.842,-27.697 l 38.028,0 0,-42.435" /><path
       inkscape:connector-curvature="0"
       style="fill:#ffffff"
       id="path3363"
       d="m 553.21204,118.803 -0.125,149.365 46.671,0 -0.014,-149.537 c 0,-28.121 23.074,-50.983 51.46,-50.983 28.379,0 51.473,22.862 51.473,50.983 l -0.345,149.537 46.439,0 0.49,-149.349 c 0,-54.039 -43.995,-97.988 -98.045,-97.988 -54.035,0.001 -98.004,43.95 -98.004,97.972" /><path
       inkscape:connector-curvature="0"
       style="fill:#ffffff"
       id="path3365"
       d="M 333.638,56.36 C 315.107,34.15 287.96,20.633 258.853,20.633 c -54.042,0 -97.992,43.952 -97.992,97.972 l -0.139,149.365 46.664,0 -0.02,-149.544 c 0,-28.114 23.101,-50.979 51.479,-50.979 28.372,0 51.459,22.865 51.459,50.979 l -0.351,149.544 40.147,0 1.073,-0.64 6.318,0 0,-149.537 c 0,-28.121 23.08004,-50.993 51.45904,-50.993 28.379,0 51.473,22.872 51.473,50.993 l -0.351,149.537 46.453,0 0.47,-149.349 c 0,-54.032 -43.976,-97.981 -98.012,-97.981 -29.436,0.001 -56.79404,13.753 -75.34504,36.36" /><path
       inkscape:connector-curvature="0"
       style="fill:#ffffff"
       id="path3367"
       d="m 43.577,383.406 c -9.689,0 -17.279,-2.219 -23.577,-8.285 l 5.603,-5.603 c 4.55,4.785 10.736,6.649 17.855,6.649 9.458,0 15.292,-3.385 15.292,-10.152 0,-5.021 -2.92,-7.818 -9.57,-8.405 l -9.458,-0.814 c -11.206,-0.934 -17.16,-5.954 -17.16,-15.411 0,-10.504 8.875,-16.806 21.127,-16.806 8.172,0 15.524,1.983 20.664,6.186 l -5.484,5.487 c -4.086,-3.152 -9.338,-4.553 -15.292,-4.553 -8.404,0 -12.842,3.619 -12.842,9.453 0,4.904 2.802,7.822 10.041,8.405 l 9.219,0.817 c 10.04,0.934 16.928,4.785 16.928,15.524 0,11.088 -9.458,17.508 -23.346,17.508" /><path
       inkscape:connector-curvature="0"
       style="fill:#ffffff"
       id="path3369"
       d="m 118.859,353.994 c 0,6.418 -0.351,13.537 -4.55,17.74 -2.683,2.686 -6.424,4.201 -10.504,4.201 -4.093,0 -7.709,-1.516 -10.392,-4.201 -4.205,-4.203 -4.669,-11.322 -4.669,-17.74 0,-6.42 0.464,-13.54 4.669,-17.742 2.683,-2.686 6.299,-4.202 10.392,-4.202 4.08,0 7.821,1.517 10.504,4.202 4.199,4.202 4.55,11.322 4.55,17.742 m 8.404,0 c 0,-8.871 -1.172,-16.924 -7.007,-22.878 -3.967,-3.968 -9.451,-6.537 -16.451,-6.537 -7.007,0 -12.491,2.569 -16.465,6.537 -5.834,5.954 -7,14.007 -7,22.878 0,8.868 1.166,16.925 7,22.876 3.974,3.97 9.458,6.536 16.465,6.536 7,0 12.484,-2.566 16.451,-6.536 5.835,-5.952 7.007,-14.008 7.007,-22.876 z" /><path
       inkscape:connector-curvature="0"
       style="fill:#ffffff"
       id="path3371"
       d="m 159.596,382.705 c -10.041,0 -14.59,-6.537 -14.59,-15.289 l 0,-67.814 8.398,0 0,67.462 c 0,5.604 1.874,8.404 7.709,8.404 l 4.55,0 0,7.236" /><path
       inkscape:connector-curvature="0"
       style="fill:#ffffff"
       id="path3373"
       d="m 179.438,308.939 0,-9.454 9.451,0 0,9.454 m -8.987,73.766 0,-57.428 8.404,0 0,57.428 -8.404,0 z" /><path
       inkscape:connector-curvature="0"
       style="fill:#ffffff"
       id="path3375"
       d="m 231.725,383.406 c -14.478,0 -25.445,-9.805 -25.445,-29.412 0,-19.609 10.967,-29.415 25.445,-29.415 7.941,0 12.955,2.103 18.908,8.521 l -5.722,5.371 c -4.318,-4.788 -7.703,-6.421 -13.187,-6.421 -5.603,0 -10.271,2.216 -13.305,6.533 -2.683,3.735 -3.735,8.173 -3.735,15.411 0,7.236 1.053,11.67 3.735,15.405 3.033,4.321 7.702,6.536 13.305,6.536 5.484,0 8.868,-1.751 13.187,-6.536 l 5.722,5.487 c -5.953,6.42 -10.966,8.52 -18.908,8.52" /><path
       inkscape:connector-curvature="0"
       style="fill:#ffffff"
       id="path3377"
       d="m 266.158,308.939 0,-9.454 9.451,0 0,9.454 m -8.988,73.766 0,-57.428 8.405,0 0,57.428 -8.405,0 z" /><path
       inkscape:connector-curvature="0"
       style="fill:#ffffff"
       id="path3379"
       d="m 312.259,382.705 c -9.802,0 -14.703,-6.885 -14.703,-15.405 l 0,-35.25 -7.238,0 0,-6.421 7.238,0 0,-17.975 8.398,0 0,17.975 12.259,0 0,6.421 -12.258,0 0,35.014 c 0,5.256 2.457,8.404 7.821,8.404 l 4.438,0 0,7.236" /><path
       inkscape:connector-curvature="0"
       style="fill:#ffffff"
       id="path3381"
       d="m 369.44104,353.994 c 0,6.418 -0.345,13.537 -4.55004,17.74 -2.683,2.686 -6.418,4.201 -10.504,4.201 -4.086,0 -7.702,-1.516 -10.392,-4.201 -4.198,-4.203 -4.662,-11.322 -4.662,-17.74 0,-6.42 0.464,-13.54 4.662,-17.742 2.689,-2.686 6.305,-4.202 10.392,-4.202 4.086,0 7.821,1.517 10.504,4.202 4.20504,4.202 4.55004,11.322 4.55004,17.742 m 8.411,0 c 0,-8.871 -1.172,-16.924 -7.007,-22.878 -3.96704,-3.968 -9.45104,-6.537 -16.45804,-6.537 -7,0 -12.491,2.569 -16.458,6.537 -5.834,5.954 -7,14.007 -7,22.878 0,8.868 1.166,16.925 7,22.876 3.967,3.97 9.458,6.536 16.458,6.536 7.007,0 12.491,-2.566 16.45804,-6.536 5.835,-5.952 7.007,-14.008 7.007,-22.876 z" /><path
       inkscape:connector-curvature="0"
       style="fill:#ffffff"
       id="path3383"
       d="m 427.92104,336.252 c -3.152,-3.152 -5.483,-4.202 -9.921,-4.202 -8.404,0 -13.775,6.652 -13.775,15.408 l 0,35.247 -8.404,0 0,-57.428 8.404,0 0,7.004 c 3.152,-4.785 9.458,-7.702 16.106,-7.702 5.491,0 9.689,1.281 13.776,5.371" /><path
       inkscape:connector-curvature="0"
       style="fill:#ffffff"
       id="path3385"
       d="m 461.88204,383.406 c -9.688,0 -17.272,-2.219 -23.57,-8.285 l 5.597,-5.603 c 4.557,4.785 10.742,6.649 17.854,6.649 9.458,0 15.299,-3.385 15.299,-10.152 0,-5.021 -2.921,-7.818 -9.576,-8.405 l -9.451,-0.814 c -11.206,-0.934 -17.159,-5.954 -17.159,-15.411 0,-10.504 8.867,-16.806 21.127,-16.806 8.165,0 15.517,1.983 20.662,6.186 l -5.49,5.487 c -4.086,-3.152 -9.338,-4.553 -15.292,-4.553 -8.397,0 -12.835,3.619 -12.835,9.453 0,4.904 2.795,7.822 10.034,8.405 l 9.219,0.817 c 10.04,0.934 16.928,4.785 16.928,15.524 -10e-4,11.088 -9.458,17.508 -23.347,17.508" /></g><g
     inkscape:groupmode="layer"
     id="layer2"
     inkscape:label="Logo"
     style="display:inline"><path
       style="fill:#ffffff;filter:url(#filter3526)"
       d="M 408.98242 20 C 379.54642 20.001 352.18967 33.752375 333.63867 56.359375 C 315.10767 34.149375 287.96052 20.632812 258.85352 20.632812 C 204.81152 20.632812 160.86133 64.585469 160.86133 118.60547 L 160.72266 267.9707 L 207.38672 267.9707 L 207.36523 118.42578 C 207.36523 90.311781 230.4677 67.447266 258.8457 67.447266 C 287.2177 67.447266 310.30469 90.311781 310.30469 118.42578 L 309.95312 267.9707 L 350.09961 267.9707 L 351.17383 267.33008 L 357.49023 267.33008 L 357.49023 117.79297 C 357.49023 89.671969 380.57022 66.800781 408.94922 66.800781 C 437.32822 66.800781 460.42383 89.671969 460.42383 117.79297 L 460.07227 267.33008 L 506.52539 267.33008 L 506.99414 117.98047 C 506.99414 63.948469 463.01842 20 408.98242 20 z M 651.2168 20.830078 C 597.1818 20.831078 553.21289 64.780734 553.21289 118.80273 L 553.08789 268.16797 L 599.75781 268.16797 L 599.74414 118.63086 C 599.74414 90.509859 622.81712 67.648438 651.20312 67.648438 C 679.58213 67.648438 702.67773 90.509859 702.67773 118.63086 L 702.33203 268.16797 L 748.77148 268.16797 L 749.26172 118.81836 C 749.26172 64.779359 705.2668 20.830078 651.2168 20.830078 z M 89.154297 22.498047 C 48.225297 22.498047 23.78125 48.190078 23.78125 91.205078 L 23.78125 267.02344 L 70.451172 267.02344 L 70.451172 92.630859 C 70.451172 71.927859 76.710922 64.933594 95.294922 64.933594 L 133.32227 64.933594 L 133.32227 22.498047 L 126.99219 22.498047 L 89.154297 22.498047 z M 813.17383 24.169922 L 813.17383 302.12305 C 813.17383 322.81205 806.90789 329.80469 788.33789 329.80469 L 756.20898 329.80469 L 756.20898 372.20508 L 794.46289 372.20508 C 835.39189 372.20508 859.83789 346.53611 859.83789 303.53711 L 859.83789 24.169922 L 853.50586 24.169922 L 813.17383 24.169922 z M 179.4375 299.48438 L 179.4375 308.93945 L 188.88867 308.93945 L 188.88867 299.48438 L 179.4375 299.48438 z M 266.1582 299.48438 L 266.1582 308.93945 L 275.60938 308.93945 L 275.60938 299.48438 L 266.1582 299.48438 z M 145.00586 299.60156 L 145.00586 367.41602 C 145.00586 376.16802 149.5547 382.70508 159.5957 382.70508 L 165.66211 382.70312 L 165.66211 375.46875 L 161.11328 375.46875 C 155.27828 375.46875 153.4043 372.66845 153.4043 367.06445 L 153.4043 299.60156 L 145.00586 299.60156 z M 297.55664 307.6543 L 297.55664 325.62891 L 290.31836 325.62891 L 290.31836 332.05078 L 297.55664 332.05078 L 297.55664 367.30078 C 297.55664 375.82078 302.45777 382.70508 312.25977 382.70508 L 318.21484 382.70312 L 318.21484 375.46875 L 313.77539 375.46875 C 308.41139 375.46875 305.95508 372.32045 305.95508 367.06445 L 305.95508 332.05078 L 318.21289 332.05078 L 318.21289 325.62891 L 305.95312 325.62891 L 305.95312 307.6543 L 297.55664 307.6543 z M 43.689453 324.57812 C 31.437453 324.57812 22.5625 330.88077 22.5625 341.38477 C 22.5625 350.84177 28.516656 355.86287 39.722656 356.79688 L 49.179688 357.60938 C 55.829688 358.19638 58.75 360.99462 58.75 366.01562 C 58.75 372.78262 52.915031 376.16797 43.457031 376.16797 C 36.338031 376.16797 30.153516 374.30258 25.603516 369.51758 L 20 375.12109 C 26.298 381.18709 33.887172 383.40625 43.576172 383.40625 C 57.464172 383.40625 66.923828 376.98644 66.923828 365.89844 C 66.923828 355.15944 60.034141 351.30705 49.994141 350.37305 L 40.775391 349.55664 C 33.536391 348.97364 30.734375 346.05634 30.734375 341.15234 C 30.734375 335.31834 35.172172 331.69922 43.576172 331.69922 C 49.530172 331.69922 54.783141 333.09995 58.869141 336.25195 L 64.353516 330.76562 C 59.213516 326.56263 51.861453 324.57812 43.689453 324.57812 z M 103.80469 324.57812 C 96.797687 324.57812 91.313844 327.14723 87.339844 331.11523 C 81.505844 337.06923 80.339844 345.12314 80.339844 353.99414 C 80.339844 362.86214 81.505844 370.91814 87.339844 376.86914 C 91.313844 380.83914 96.797687 383.40625 103.80469 383.40625 C 110.80469 383.40625 116.28886 380.83914 120.25586 376.86914 C 126.09086 370.91714 127.26367 362.86214 127.26367 353.99414 C 127.26367 345.12314 126.09086 337.06923 120.25586 331.11523 C 116.28886 327.14723 110.80469 324.57813 103.80469 324.57812 z M 231.72461 324.57812 C 217.24661 324.57812 206.2793 334.38514 206.2793 353.99414 C 206.2793 373.60114 217.24661 383.40625 231.72461 383.40625 C 239.66661 383.40625 244.67981 381.30672 250.63281 374.88672 L 244.91016 369.39844 C 240.59116 374.18344 237.20861 375.93555 231.72461 375.93555 C 226.12161 375.93555 221.45292 373.71944 218.41992 369.39844 C 215.73792 365.66344 214.68359 361.23014 214.68359 353.99414 C 214.68359 346.75614 215.73692 342.31703 218.41992 338.58203 C 221.45392 334.26503 226.12161 332.05078 231.72461 332.05078 C 237.20861 332.05078 240.59216 333.6827 244.91016 338.4707 L 250.63281 333.09961 C 244.67981 326.68161 239.66561 324.57812 231.72461 324.57812 z M 354.38672 324.57812 C 347.38672 324.57812 341.89669 327.14723 337.92969 331.11523 C 332.09569 337.06923 330.92969 345.12314 330.92969 353.99414 C 330.92969 362.86214 332.09569 370.91814 337.92969 376.86914 C 341.89669 380.83914 347.38672 383.40625 354.38672 383.40625 C 361.39372 383.40625 366.87866 380.83914 370.8457 376.86914 C 376.6807 370.91714 377.85156 362.86214 377.85156 353.99414 C 377.85156 345.12314 376.6807 337.06923 370.8457 331.11523 C 366.87866 327.14723 361.39372 324.57813 354.38672 324.57812 z M 420.33008 324.57812 C 413.68208 324.57812 407.37661 327.49625 404.22461 332.28125 L 404.22461 325.27734 L 395.82031 325.27734 L 395.82031 382.70508 L 404.22461 382.70508 L 404.22461 347.45703 C 404.22461 338.70103 409.596 332.05078 418 332.05078 C 422.438 332.05078 424.76988 333.09995 427.92188 336.25195 L 434.10742 329.94922 C 430.02042 325.85922 425.82108 324.57812 420.33008 324.57812 z M 462.00391 324.57812 C 449.74391 324.57812 440.87695 330.88077 440.87695 341.38477 C 440.87695 350.84177 446.82916 355.86287 458.03516 356.79688 L 467.48633 357.60938 C 474.14133 358.19638 477.0625 360.99462 477.0625 366.01562 C 477.0625 372.78262 471.22167 376.16797 461.76367 376.16797 C 454.65167 376.16797 448.4652 374.30258 443.9082 369.51758 L 438.3125 375.12109 C 444.6105 381.18709 452.19481 383.40625 461.88281 383.40625 C 475.77181 383.40625 485.22752 376.98644 485.22852 365.89844 C 485.22852 355.15944 478.34078 351.30705 468.30078 350.37305 L 459.08203 349.55664 C 451.84303 348.97364 449.04883 346.05634 449.04883 341.15234 C 449.04883 335.31834 453.48581 331.69922 461.88281 331.69922 C 467.83681 331.69922 473.08978 333.09995 477.17578 336.25195 L 482.66602 330.76562 C 477.52102 326.56263 470.16891 324.57812 462.00391 324.57812 z M 179.90234 325.27734 L 179.90234 382.70508 L 188.30664 382.70508 L 188.30664 325.27734 L 179.90234 325.27734 z M 266.62109 325.27734 L 266.62109 382.70508 L 275.02539 382.70508 L 275.02539 325.27734 L 266.62109 325.27734 z M 103.80469 332.05078 C 107.88469 332.05078 111.62559 333.56695 114.30859 336.25195 C 118.50759 340.45395 118.85937 347.57414 118.85938 353.99414 C 118.85938 360.41214 118.50759 367.53137 114.30859 371.73438 C 111.62559 374.42037 107.88469 375.93555 103.80469 375.93555 C 99.711687 375.93555 96.095109 374.41938 93.412109 371.73438 C 89.207109 367.53138 88.744141 360.41214 88.744141 353.99414 C 88.744141 347.57414 89.207109 340.45395 93.412109 336.25195 C 96.095109 333.56595 99.711688 332.05078 103.80469 332.05078 z M 354.38672 332.05078 C 358.47272 332.05078 362.20763 333.56695 364.89062 336.25195 C 369.09566 340.45395 369.44141 347.57414 369.44141 353.99414 C 369.44141 360.41214 369.09567 367.53137 364.89062 371.73438 C 362.20763 374.42037 358.47272 375.93555 354.38672 375.93555 C 350.30072 375.93555 346.68414 374.41938 343.99414 371.73438 C 339.79614 367.53138 339.33203 360.41214 339.33203 353.99414 C 339.33203 347.57414 339.79614 340.45395 343.99414 336.25195 C 346.68314 333.56595 350.29972 332.05078 354.38672 332.05078 z "
       id="path3" /></g></svg>